<svg version="1.1" xmlns="http://www.w3.org/2000/svg" xmlns:xlink="http://www.w3.org/1999/xlink" preserveAspectRatio="xMidYMid meet" viewBox="239.82777108099953 193.6518469365185 83.83938810207201 97.34571997345722" width="83.84" height="97.35" fill="#178cd3"><defs><path d="M309.41 263.53C311.79 259.94 313.89 256.26 315.68 252.38C316.57 250.59 317.27 248.79 317.97 247C316.92 247 311.68 247 302.24 247C306.54 256.92 308.93 262.42 309.41 263.53Z" id="b2fOlcHvQn"></path><path d="M323.24 200.42C322.58 200.06 322.22 199.86 322.15 199.82C321.65 199.62 309.21 193.65 281.83 193.65C281.82 193.65 281.75 193.65 281.74 193.65C254.36 193.65 241.92 199.52 241.42 199.82C241.34 199.86 240.95 200.06 240.23 200.42C240.17 201.2 240.14 201.63 240.13 201.71C240.13 202.31 239.33 217.34 240.33 224.61C240.34 224.74 240.42 225.77 240.43 225.9C241.03 230.68 242.22 240.53 247.69 252.38C254.46 267.01 265.51 279.75 280.34 290.1C280.43 290.16 280.86 290.46 281.64 291C282.41 290.46 282.84 290.16 282.93 290.1C290.49 284.83 297.06 278.95 302.64 272.48C302.02 271.06 298.93 263.96 293.38 251.18L281.83 262.33L281.74 207.79C303.95 230 316.29 242.34 318.76 244.81C321.65 236.45 322.54 229.58 323.04 225.9C323.06 225.77 323.22 224.74 323.24 224.61C324.14 217.34 323.34 202.31 323.34 201.71C323.33 201.54 323.29 201.11 323.24 200.42Z" id="dAoIivz3V"></path></defs><g><g><g><use xlink:href="#b2fOlcHvQn" opacity="1" fill="#178cd3" fill-opacity="1"></use><g><use xlink:href="#b2fOlcHvQn" opacity="1" fill-opacity="0" stroke="#000000" stroke-width="1" stroke-opacity="0"></use></g></g><g><use xlink:href="#dAoIivz3V" opacity="1" fill="#178cd3" fill-opacity="1"></use><g><use xlink:href="#dAoIivz3V" opacity="1" fill-opacity="0" stroke="#000000" stroke-width="1" stroke-opacity="0"></use></g></g></g></g></svg>
